<?xml version="1.0" encoding="UTF-8"?>
<svg xmlns="http://www.w3.org/2000/svg" xmlns:xlink="http://www.w3.org/1999/xlink" width="542pt" height="707pt" viewBox="0 0 542 707" version="1.1">
<g id="surface1263748">
<path style="fill:none;stroke-width:2;stroke-linecap:round;stroke-linejoin:round;stroke:rgb(100%,100%,100%);stroke-opacity:1;stroke-miterlimit:10;" d="M 323.95022 340.502801 L 323.168572 359.89191 L 341.101597 366.546514 Z M 323.95022 340.502801 " transform="matrix(3.133404,0,0,-3.133404,-680.773883,1457.878084)"/>
<path style="fill:none;stroke-width:2;stroke-linecap:round;stroke-linejoin:round;stroke:rgb(100%,100%,100%);stroke-opacity:1;stroke-miterlimit:10;" d="M 303.83307 433.673495 L 292.95233 439.343248 L 304.972505 446.020292 L 315.913084 439.969065 Z M 303.83307 433.673495 " transform="matrix(3.133404,0,0,-3.133404,-680.773883,1457.878084)"/>
<path style="fill:none;stroke-width:2;stroke-linecap:round;stroke-linejoin:round;stroke:rgb(100%,100%,100%);stroke-opacity:1;stroke-miterlimit:10;" d="M 247.541949 335.500005 L 236.355781 342.177049 L 238.860296 356.201833 L 248.710057 347.854282 Z M 247.541949 335.500005 " transform="matrix(3.133404,0,0,-3.133404,-680.773883,1457.878084)"/>
<path style="fill:none;stroke-width:2;stroke-linecap:round;stroke-linejoin:round;stroke:rgb(100%,100%,100%);stroke-opacity:1;stroke-miterlimit:10;" d="M 271.680784 375.215701 L 271.007594 395.334098 L 289.663674 402.013635 Z M 271.680784 375.215701 " transform="matrix(3.133404,0,0,-3.133404,-680.773883,1457.878084)"/>
<path style="fill:none;stroke-width:2;stroke-linecap:round;stroke-linejoin:round;stroke:rgb(100%,100%,100%);stroke-opacity:1;stroke-miterlimit:10;" d="M 317.441474 411.147822 L 317.871567 330.565774 L 287.366103 311.940861 L 257.092515 330.726592 L 256.924218 416.669223 L 287.418462 434.561108 L 314.791101 420.80934 " transform="matrix(3.133404,0,0,-3.133404,-680.773883,1457.878084)"/>
<path style="fill:none;stroke-width:2;stroke-linecap:round;stroke-linejoin:round;stroke:rgb(100%,100%,100%);stroke-opacity:1;stroke-miterlimit:10;" d="M 309.835677 411.150315 L 309.658653 334.896627 L 288.581584 321.608612 " transform="matrix(3.133404,0,0,-3.133404,-680.773883,1457.878084)"/>
<path style="fill:none;stroke-width:2;stroke-linecap:round;stroke-linejoin:round;stroke:rgb(100%,100%,100%);stroke-opacity:1;stroke-miterlimit:10;" d="M 279.181862 326.307226 L 264.804277 334.917821 L 264.538741 412.10774 L 287.414722 425.178839 L 300.651625 419.310869 " transform="matrix(3.133404,0,0,-3.133404,-680.773883,1457.878084)"/>
<path style="fill:none;stroke-width:2;stroke-linecap:round;stroke-linejoin:round;stroke:rgb(100%,100%,100%);stroke-opacity:1;stroke-miterlimit:10;" d="M 323.073827 367.218457 L 336.95774 402.572133 " transform="matrix(3.133404,0,0,-3.133404,-680.773883,1457.878084)"/>
<path style="fill:none;stroke-width:2;stroke-linecap:round;stroke-linejoin:round;stroke:rgb(100%,100%,100%);stroke-opacity:1;stroke-miterlimit:10;" d="M 274.878435 253.726162 L 283.874243 275.036355 " transform="matrix(3.133404,0,0,-3.133404,-680.773883,1457.878084)"/>
<path style="fill:none;stroke-width:2;stroke-linecap:round;stroke-linejoin:round;stroke:rgb(100%,100%,100%);stroke-opacity:1;stroke-miterlimit:10;" d="M 305.468671 293.845772 C 278.028713 301.100014 249.127684 314.794437 218.763091 334.931534 L 232.952433 420.075064 L 304.266903 463.770059 C 337.285609 446.781994 364.703127 424.375998 386.518211 396.552073 L 389.022726 315.915173 L 316.254665 291.942141 " transform="matrix(3.133404,0,0,-3.133404,-680.773883,1457.878084)"/>
<path style="fill:none;stroke-width:2;stroke-linecap:round;stroke-linejoin:round;stroke:rgb(100%,100%,100%);stroke-opacity:1;stroke-miterlimit:10;" d="M 308.748601 300.824505 C 282.906845 307.322032 256.083977 319.859565 228.278752 338.438353 L 240.801326 414.734426 L 305.133323 454.226972 C 335.23612 437.590462 359.94218 416.323902 379.24901 390.426047 L 380.842225 321.259551 L 319.85249 299.874559 " transform="matrix(3.133404,0,0,-3.133404,-680.773883,1457.878084)"/>
<path style="fill:none;stroke-width:2;stroke-linecap:round;stroke-linejoin:round;stroke:rgb(100%,100%,100%);stroke-opacity:1;stroke-miterlimit:10;" d="M 282.829553 320.563921 C 292.742894 353.368203 298.568477 384.660302 300.306304 414.436478 C 316.022789 415.506101 331.09351 417.651582 345.518469 420.872919 C 352.058381 408.106002 361.02801 395.832757 372.427355 384.054432 C 347.195209 355.084837 324.663303 320.900516 304.829141 281.501469 C 292.482344 281.715892 282.273548 285.857255 274.201505 293.925558 C 274.297497 295.414055 273.260286 297.074589 271.089873 298.907161 C 265.780402 300.360752 260.286426 297.140661 254.609193 289.248136 C 264.624759 287.141302 272.233049 283.794053 277.432816 279.206391 C 273.67916 267.76466 268.615278 260.086558 262.241169 256.169592 C 261.384722 249.09736 263.945336 244.366333 269.923011 241.97651 C 276.380645 240.172611 281.221377 241.452918 284.447701 245.818677 C 282.667488 253.746109 284.892754 262.98252 291.122252 273.530405 C 297.906507 272.814829 305.698054 269.643358 314.498139 264.014744 C 318.422585 271.955889 317.425267 278.042022 311.507432 282.273143 " transform="matrix(3.133404,0,0,-3.133404,-680.773883,1457.878084)"/>
<path style="fill:none;stroke-width:2;stroke-linecap:round;stroke-linejoin:round;stroke:rgb(100%,100%,100%);stroke-opacity:1;stroke-miterlimit:10;" d="M 304.983725 396.022247 C 302.913044 375.602162 298.941225 354.482706 293.069515 332.661389 " transform="matrix(3.133404,0,0,-3.133404,-680.773883,1457.878084)"/>
<path style="fill:none;stroke-width:2;stroke-linecap:round;stroke-linejoin:round;stroke:rgb(100%,100%,100%);stroke-opacity:1;stroke-miterlimit:10;" d="M 311.992378 308.129859 C 328.06665 336.447457 345.028536 361.305608 362.876788 382.703066 C 352.78393 393.076419 345.578308 402.663139 341.261167 411.461977 C 335.299699 409.857541 329.406796 408.63458 323.579966 407.79434 " transform="matrix(3.133404,0,0,-3.133404,-680.773883,1457.878084)"/>
<path style="fill:none;stroke-width:2;stroke-linecap:round;stroke-linejoin:round;stroke:rgb(100%,100%,100%);stroke-opacity:1;stroke-miterlimit:10;" d="M 281.505613 296.665689 C 286.835031 291.590587 293.714032 289.052413 302.140122 289.052413 " transform="matrix(3.133404,0,0,-3.133404,-680.773883,1457.878084)"/>
<path style="fill:none;stroke-width:2;stroke-linecap:round;stroke-linejoin:round;stroke:rgb(100%,100%,100%);stroke-opacity:1;stroke-miterlimit:10;" d="M 298.193236 308.95888 L 300.418502 314.233445 " transform="matrix(3.133404,0,0,-3.133404,-680.773883,1457.878084)"/>
<path style="fill:none;stroke-width:2;stroke-linecap:round;stroke-linejoin:round;stroke:rgb(100%,100%,100%);stroke-opacity:1;stroke-miterlimit:10;" d="M 287.369843 387.188503 L 287.415969 359.313465 " transform="matrix(3.133404,0,0,-3.133404,-680.773883,1457.878084)"/>
<path style="fill:none;stroke-width:2;stroke-linecap:round;stroke-linejoin:round;stroke:rgb(100%,100%,100%);stroke-opacity:1;stroke-miterlimit:10;" d="M 373.771241 326.299746 L 373.331174 347.30825 L 357.010065 337.318864 L 354.3385 319.413266 Z M 373.771241 326.299746 " transform="matrix(3.133404,0,0,-3.133404,-680.773883,1457.878084)"/>
</g>
</svg>
