<?xml version="1.0" encoding="UTF-8"?>
<svg xmlns="http://www.w3.org/2000/svg" xmlns:xlink="http://www.w3.org/1999/xlink" width="1606pt" height="603pt" viewBox="0 0 1606 603" version="1.1">
<g id="surface1230290">
<path style=" stroke:none;fill-rule:evenodd;fill:rgb(0%,0%,0%);fill-opacity:1;" d="M 0.625 0.625 L 0.625 602.238281 L 1604.929688 602.238281 L 1604.929688 0.625 Z M 0.625 0.625 "/>
<path style="fill:none;stroke-width:1.2;stroke-linecap:round;stroke-linejoin:round;stroke:rgb(100%,100%,100%);stroke-opacity:1;stroke-miterlimit:10;" d="M 101.464961 668.459863 L 101.248044 673.84538 L 106.228401 675.694158 Z M 101.464961 668.459863 " transform="matrix(3.133404,0,0,-3.133404,-199.911163,2206.542957)"/>
<path style="fill:none;stroke-width:1.2;stroke-linecap:round;stroke-linejoin:round;stroke:rgb(100%,100%,100%);stroke-opacity:1;stroke-miterlimit:10;" d="M 95.877487 694.340265 L 92.854367 695.914781 L 96.192889 697.769792 L 99.232215 696.089311 Z M 95.877487 694.340265 " transform="matrix(3.133404,0,0,-3.133404,-199.911163,2206.542957)"/>
<path style="fill:none;stroke-width:1.2;stroke-linecap:round;stroke-linejoin:round;stroke:rgb(100%,100%,100%);stroke-opacity:1;stroke-miterlimit:10;" d="M 80.240787 667.069851 L 77.132895 668.924862 L 77.828524 672.820636 L 80.564916 670.501872 Z M 80.240787 667.069851 " transform="matrix(3.133404,0,0,-3.133404,-199.911163,2206.542957)"/>
<path style="fill:none;stroke-width:1.2;stroke-linecap:round;stroke-linejoin:round;stroke:rgb(100%,100%,100%);stroke-opacity:1;stroke-miterlimit:10;" d="M 86.945257 678.101435 L 86.75826 683.690155 L 91.940574 685.546414 Z M 86.945257 678.101435 " transform="matrix(3.133404,0,0,-3.133404,-199.911163,2206.542957)"/>
<path style="fill:none;stroke-width:1.2;stroke-linecap:round;stroke-linejoin:round;stroke:rgb(100%,100%,100%);stroke-opacity:1;stroke-miterlimit:10;" d="M 96.331266 655.499716 C 88.709264 657.514298 80.680854 661.317819 72.246037 666.911527 L 76.187936 690.562923 L 95.997165 702.700283 C 105.16875 697.981722 112.78452 691.757211 118.844473 684.029244 L 119.540103 661.629481 L 99.32696 654.96989 " transform="matrix(3.133404,0,0,-3.133404,-199.911163,2206.542957)"/>
<path style="fill:none;stroke-width:1.2;stroke-linecap:round;stroke-linejoin:round;stroke:rgb(100%,100%,100%);stroke-opacity:1;stroke-miterlimit:10;" d="M 97.241319 657.438252 C 90.063123 659.242151 82.613157 662.725284 74.888929 667.886405 L 78.367076 689.079413 L 96.237768 700.04991 C 104.599033 695.428588 111.461827 689.520726 116.824905 682.32757 L 117.267464 663.114239 L 100.326772 657.173963 " transform="matrix(3.133404,0,0,-3.133404,-199.911163,2206.542957)"/>
<path style="fill:none;stroke-width:1.2;stroke-linecap:round;stroke-linejoin:round;stroke:rgb(100%,100%,100%);stroke-opacity:1;stroke-miterlimit:10;" d="M 115.303995 664.514224 L 115.181823 670.349781 L 110.647766 667.574743 L 109.906011 662.601866 Z M 115.303995 664.514224 " transform="matrix(3.133404,0,0,-3.133404,-199.911163,2206.542957)"/>
<path style="fill:none;stroke-width:1.2;stroke-linecap:round;stroke-linejoin:round;stroke:rgb(100%,100%,100%);stroke-opacity:1;stroke-miterlimit:10;" d="M 160.330409 655.499716 C 152.708406 657.514298 144.679996 661.317819 136.246426 666.911527 L 140.187079 690.562923 L 159.997554 702.700283 C 169.16914 697.981722 176.784909 691.757211 182.844863 684.029244 L 183.540492 661.629481 L 163.327349 654.96989 " transform="matrix(3.133404,0,0,-3.133404,-199.911163,2206.542957)"/>
<path style="fill:none;stroke-width:1.2;stroke-linecap:round;stroke-linejoin:round;stroke:rgb(100%,100%,100%);stroke-opacity:1;stroke-miterlimit:10;" d="M 225.242097 657.438252 C 218.063901 659.242151 210.612689 662.725284 202.888461 667.886405 L 206.367854 689.079413 L 224.237299 700.04991 C 232.599811 695.428588 239.462605 689.520726 244.825683 682.32757 L 245.268243 663.114239 L 228.326303 657.173963 " transform="matrix(3.133404,0,0,-3.133404,-199.911163,2206.542957)"/>
<path style="fill:none;stroke-width:1.2;stroke-linecap:round;stroke-linejoin:round;stroke:rgb(100%,100%,100%);stroke-opacity:1;stroke-miterlimit:10;" d="M 307.303915 664.514224 L 307.181744 670.349781 L 302.647687 667.574743 L 301.905932 662.601866 Z M 307.303915 664.514224 " transform="matrix(3.133404,0,0,-3.133404,-199.911163,2206.542957)"/>
<path style="fill:none;stroke-width:1.2;stroke-linecap:round;stroke-linejoin:round;stroke:rgb(100%,100%,100%);stroke-opacity:1;stroke-miterlimit:10;" d="M 357.464024 668.459863 L 357.247107 673.84538 L 362.228711 675.694158 Z M 357.464024 668.459863 " transform="matrix(3.133404,0,0,-3.133404,-199.911163,2206.542957)"/>
<path style="fill:none;stroke-width:1.2;stroke-linecap:round;stroke-linejoin:round;stroke:rgb(100%,100%,100%);stroke-opacity:1;stroke-miterlimit:10;" d="M 406.94471 678.101435 L 406.757712 683.690155 L 411.940026 685.546414 Z M 406.94471 678.101435 " transform="matrix(3.133404,0,0,-3.133404,-199.911163,2206.542957)"/>
<path style="fill:none;stroke-width:1.2;stroke-linecap:round;stroke-linejoin:round;stroke:rgb(100%,100%,100%);stroke-opacity:1;stroke-miterlimit:10;" d="M 464.240628 667.069851 L 461.132736 668.924862 L 461.828366 672.820636 L 464.564757 670.501872 Z M 464.240628 667.069851 " transform="matrix(3.133404,0,0,-3.133404,-199.911163,2206.542957)"/>
<path style="fill:none;stroke-width:1.2;stroke-linecap:round;stroke-linejoin:round;stroke:rgb(100%,100%,100%);stroke-opacity:1;stroke-miterlimit:10;" d="M 543.87647 694.340265 L 540.854597 695.914781 L 544.193119 697.769792 L 547.232446 696.089311 Z M 543.87647 694.340265 " transform="matrix(3.133404,0,0,-3.133404,-199.911163,2206.542957)"/>
<path style="fill:none;stroke-width:1.2;stroke-linecap:round;stroke-linejoin:round;stroke:rgb(100%,100%,100%);stroke-opacity:1;stroke-miterlimit:10;" d="M 101.220618 611.880766 L 105.077745 621.700609 " transform="matrix(3.133404,0,0,-3.133404,-199.911163,2206.542957)"/>
<path style="fill:none;stroke-width:1.2;stroke-linecap:round;stroke-linejoin:round;stroke:rgb(100%,100%,100%);stroke-opacity:1;stroke-miterlimit:10;" d="M 87.834117 580.355545 L 90.332399 586.274627 " transform="matrix(3.133404,0,0,-3.133404,-199.911163,2206.542957)"/>
<path style="fill:none;stroke-width:1.2;stroke-linecap:round;stroke-linejoin:round;stroke:rgb(100%,100%,100%);stroke-opacity:1;stroke-miterlimit:10;" d="M 90.04193 598.920619 C 92.795774 608.033612 94.413923 616.725239 94.896375 624.996745 C 99.262135 625.293447 103.479543 625.982843 107.547354 627.06244 C 109.302634 623.331224 111.763516 619.829391 114.93 616.556941 C 107.921348 608.509832 101.661931 599.014118 96.152996 588.069799 C 92.723469 588.129638 89.887345 589.280294 87.645873 591.521766 C 87.672053 591.934406 87.384077 592.395666 86.7807 592.905545 C 85.305916 593.308212 83.780019 592.414366 82.20301 590.222759 C 84.985528 589.636835 87.098595 588.706836 88.543459 587.432762 C 87.500016 584.255058 86.093797 582.122044 84.323558 581.033721 C 84.085448 579.069004 84.796037 577.755038 86.456572 577.090575 C 88.250497 576.589422 89.59563 576.945964 90.49197 578.158952 C 89.99705 580.360531 90.615388 582.926132 92.345734 585.855753 C 94.230665 585.657536 96.394845 584.776157 98.839521 583.212861 C 99.929091 585.41818 99.652335 587.108634 98.008007 588.284223 " transform="matrix(3.133404,0,0,-3.133404,-199.911163,2206.542957)"/>
<path style="fill:none;stroke-width:1.2;stroke-linecap:round;stroke-linejoin:round;stroke:rgb(100%,100%,100%);stroke-opacity:1;stroke-miterlimit:10;" d="M 96.196628 619.88175 C 95.620677 614.209504 94.517394 608.342781 92.886779 602.281581 " transform="matrix(3.133404,0,0,-3.133404,-199.911163,2206.542957)"/>
<path style="fill:none;stroke-width:1.2;stroke-linecap:round;stroke-linejoin:round;stroke:rgb(100%,100%,100%);stroke-opacity:1;stroke-miterlimit:10;" d="M 98.142645 595.467405 C 102.608137 603.332505 107.319217 610.237685 112.277134 616.1817 C 109.473424 619.062703 107.513694 621.814054 106.397945 624.435753 C 104.658872 623.813676 102.979637 623.384829 101.361489 623.151706 " transform="matrix(3.133404,0,0,-3.133404,-199.911163,2206.542957)"/>
<path style="fill:none;stroke-width:1.2;stroke-linecap:round;stroke-linejoin:round;stroke:rgb(100%,100%,100%);stroke-opacity:1;stroke-miterlimit:10;" d="M 89.674169 592.282221 C 91.155186 590.872263 93.06505 590.167907 95.406254 590.167907 " transform="matrix(3.133404,0,0,-3.133404,-199.911163,2206.542957)"/>
<path style="fill:none;stroke-width:1.2;stroke-linecap:round;stroke-linejoin:round;stroke:rgb(100%,100%,100%);stroke-opacity:1;stroke-miterlimit:10;" d="M 94.309204 595.698035 L 94.927541 597.162846 " transform="matrix(3.133404,0,0,-3.133404,-199.911163,2206.542957)"/>
<path style="fill:none;stroke-width:1.2;stroke-linecap:round;stroke-linejoin:round;stroke:rgb(100%,100%,100%);stroke-opacity:1;stroke-miterlimit:10;" d="M 154.042319 598.920619 C 156.796163 608.033612 158.414312 616.725239 158.896764 624.996745 C 163.262524 625.293447 167.478686 625.982843 171.547743 627.06244 C 173.303023 623.331224 175.763905 619.829391 178.930389 616.556941 C 171.921737 608.509832 165.66232 599.014118 160.153385 588.069799 C 156.723858 588.129638 153.887735 589.280294 151.645016 591.521766 C 151.672442 591.934406 151.384466 592.395666 150.781089 592.905545 C 149.306305 593.308212 147.780409 592.414366 146.203399 590.222759 C 148.985917 589.636835 151.098984 588.706836 152.542602 587.432762 C 151.500405 584.255058 150.094186 582.122044 148.3227 581.033721 C 148.085837 579.069004 148.796426 577.755038 150.456961 577.090575 C 152.250886 576.589422 153.596019 576.945964 154.491112 578.158952 C 153.99744 580.360531 154.615777 582.926132 156.346123 585.855753 C 158.229808 585.657536 160.393988 584.776157 162.838664 583.212861 C 163.92948 585.41818 163.651478 587.108634 162.008396 588.284223 " transform="matrix(3.133404,0,0,-3.133404,-199.911163,2206.542957)"/>
<path style="fill:none;stroke-width:1.2;stroke-linecap:round;stroke-linejoin:round;stroke:rgb(100%,100%,100%);stroke-opacity:1;stroke-miterlimit:10;" d="M 226.143423 595.467405 C 230.607668 603.332505 235.319996 610.237685 240.277913 616.1817 C 237.474202 619.062703 235.514473 621.814054 234.397476 624.435753 C 232.658403 623.813676 230.980416 623.384829 229.362267 623.151706 " transform="matrix(3.133404,0,0,-3.133404,-199.911163,2206.542957)"/>
<path style="fill:none;stroke-width:1.2;stroke-linecap:round;stroke-linejoin:round;stroke:rgb(100%,100%,100%);stroke-opacity:1;stroke-miterlimit:10;" d="M 288.196549 619.88175 C 287.620598 614.209504 286.517315 608.342781 284.8867 602.281581 " transform="matrix(3.133404,0,0,-3.133404,-199.911163,2206.542957)"/>
<path style="fill:none;stroke-width:1.2;stroke-linecap:round;stroke-linejoin:round;stroke:rgb(100%,100%,100%);stroke-opacity:1;stroke-miterlimit:10;" d="M 357.220928 611.880766 L 361.078055 621.700609 " transform="matrix(3.133404,0,0,-3.133404,-199.911163,2206.542957)"/>
<path style="fill:none;stroke-width:1.2;stroke-linecap:round;stroke-linejoin:round;stroke:rgb(100%,100%,100%);stroke-opacity:1;stroke-miterlimit:10;" d="M 407.833569 580.355545 L 410.331851 586.274627 " transform="matrix(3.133404,0,0,-3.133404,-199.911163,2206.542957)"/>
<path style="fill:none;stroke-width:1.2;stroke-linecap:round;stroke-linejoin:round;stroke:rgb(100%,100%,100%);stroke-opacity:1;stroke-miterlimit:10;" d="M 473.67401 592.282221 C 475.155027 590.872263 477.064891 590.167907 479.406095 590.167907 " transform="matrix(3.133404,0,0,-3.133404,-199.911163,2206.542957)"/>
<path style="fill:none;stroke-width:1.2;stroke-linecap:round;stroke-linejoin:round;stroke:rgb(100%,100%,100%);stroke-opacity:1;stroke-miterlimit:10;" d="M 542.309435 595.698035 L 542.927772 597.162846 " transform="matrix(3.133404,0,0,-3.133404,-199.911163,2206.542957)"/>
<path style="fill:none;stroke-width:1.2;stroke-linecap:round;stroke-linejoin:round;stroke:rgb(100%,100%,100%);stroke-opacity:1;stroke-miterlimit:10;" d="M 99.657322 560.082563 L 99.775753 537.699007 L 91.30229 532.52542 L 82.892406 537.743887 L 82.84628 561.617186 L 91.31725 566.586323 L 98.920553 562.766595 " transform="matrix(3.133404,0,0,-3.133404,-199.911163,2206.542957)"/>
<path style="fill:none;stroke-width:1.2;stroke-linecap:round;stroke-linejoin:round;stroke:rgb(100%,100%,100%);stroke-opacity:1;stroke-miterlimit:10;" d="M 97.544254 560.08381 L 97.494388 538.902022 L 91.640132 535.210699 " transform="matrix(3.133404,0,0,-3.133404,-199.911163,2206.542957)"/>
<path style="fill:none;stroke-width:1.2;stroke-linecap:round;stroke-linejoin:round;stroke:rgb(100%,100%,100%);stroke-opacity:1;stroke-miterlimit:10;" d="M 89.029652 536.515939 L 85.035393 538.908255 L 84.961841 560.349346 L 91.316004 563.98083 L 94.992367 562.350215 " transform="matrix(3.133404,0,0,-3.133404,-199.911163,2206.542957)"/>
<path style="fill:none;stroke-width:1.2;stroke-linecap:round;stroke-linejoin:round;stroke:rgb(100%,100%,100%);stroke-opacity:1;stroke-miterlimit:10;" d="M 91.303537 553.427959 L 91.316004 545.685031 " transform="matrix(3.133404,0,0,-3.133404,-199.911163,2206.542957)"/>
<path style="fill:none;stroke-width:1.2;stroke-linecap:round;stroke-linejoin:round;stroke:rgb(100%,100%,100%);stroke-opacity:1;stroke-miterlimit:10;" d="M 163.656464 560.082563 L 163.776143 537.699007 L 155.302679 532.52542 L 146.892795 537.743887 L 146.84667 561.617186 L 155.317639 566.586323 L 162.919696 562.766595 " transform="matrix(3.133404,0,0,-3.133404,-199.911163,2206.542957)"/>
<path style="fill:none;stroke-width:1.2;stroke-linecap:round;stroke-linejoin:round;stroke:rgb(100%,100%,100%);stroke-opacity:1;stroke-miterlimit:10;" d="M 217.029184 536.515939 L 213.034925 538.908255 L 212.961373 560.349346 L 219.315535 563.98083 L 222.993145 562.350215 " transform="matrix(3.133404,0,0,-3.133404,-199.911163,2206.542957)"/>
<path style="fill:none;stroke-width:1.2;stroke-linecap:round;stroke-linejoin:round;stroke:rgb(100%,100%,100%);stroke-opacity:1;stroke-miterlimit:10;" d="M 289.544175 560.08381 L 289.494309 538.902022 L 283.640053 535.210699 " transform="matrix(3.133404,0,0,-3.133404,-199.911163,2206.542957)"/>
<path style="fill:none;stroke-width:1.2;stroke-linecap:round;stroke-linejoin:round;stroke:rgb(100%,100%,100%);stroke-opacity:1;stroke-miterlimit:10;" d="M 347.303847 553.427959 L 347.316313 545.685031 " transform="matrix(3.133404,0,0,-3.133404,-199.911163,2206.542957)"/>
<path style="fill:none;stroke-width:1.2;stroke-linecap:round;stroke-linejoin:round;stroke:rgb(100%,100%,100%);stroke-opacity:1;stroke-miterlimit:10;" d="M 549.465191 540.459085 L 549.247028 545.845849 L 554.228631 547.69338 Z M 549.465191 540.459085 " transform="matrix(3.133404,0,0,-3.133404,-199.911163,2206.542957)"/>
<path style="fill:none;stroke-width:1.2;stroke-linecap:round;stroke-linejoin:round;stroke:rgb(100%,100%,100%);stroke-opacity:1;stroke-miterlimit:10;" d="M 543.87647 566.340733 L 540.854597 567.915249 L 544.193119 569.770261 L 547.232446 568.088533 Z M 543.87647 566.340733 " transform="matrix(3.133404,0,0,-3.133404,-199.911163,2206.542957)"/>
<path style="fill:none;stroke-width:1.2;stroke-linecap:round;stroke-linejoin:round;stroke:rgb(100%,100%,100%);stroke-opacity:1;stroke-miterlimit:10;" d="M 528.239771 539.070319 L 525.133125 540.925331 L 525.828755 544.819858 L 528.565146 542.501093 Z M 528.239771 539.070319 " transform="matrix(3.133404,0,0,-3.133404,-199.911163,2206.542957)"/>
<path style="fill:none;stroke-width:1.2;stroke-linecap:round;stroke-linejoin:round;stroke:rgb(100%,100%,100%);stroke-opacity:1;stroke-miterlimit:10;" d="M 534.945488 550.101903 L 534.758491 555.690624 L 539.940804 557.545635 Z M 534.945488 550.101903 " transform="matrix(3.133404,0,0,-3.133404,-199.911163,2206.542957)"/>
<path style="fill:none;stroke-width:1.2;stroke-linecap:round;stroke-linejoin:round;stroke:rgb(100%,100%,100%);stroke-opacity:1;stroke-miterlimit:10;" d="M 547.656306 560.082563 L 547.775984 537.699007 L 539.302521 532.52542 L 530.892637 537.743887 L 530.846511 561.617186 L 539.317481 566.586323 L 546.920784 562.766595 " transform="matrix(3.133404,0,0,-3.133404,-199.911163,2206.542957)"/>
<path style="fill:none;stroke-width:1.2;stroke-linecap:round;stroke-linejoin:round;stroke:rgb(100%,100%,100%);stroke-opacity:1;stroke-miterlimit:10;" d="M 545.543238 560.08381 L 545.494619 538.902022 L 539.640362 535.210699 " transform="matrix(3.133404,0,0,-3.133404,-199.911163,2206.542957)"/>
<path style="fill:none;stroke-width:1.2;stroke-linecap:round;stroke-linejoin:round;stroke:rgb(100%,100%,100%);stroke-opacity:1;stroke-miterlimit:10;" d="M 537.028636 536.515939 L 533.035624 538.908255 L 532.962072 560.349346 L 539.316234 563.98083 L 542.992597 562.350215 " transform="matrix(3.133404,0,0,-3.133404,-199.911163,2206.542957)"/>
<path style="fill:none;stroke-width:1.2;stroke-linecap:round;stroke-linejoin:round;stroke:rgb(100%,100%,100%);stroke-opacity:1;stroke-miterlimit:10;" d="M 549.220848 547.880377 L 553.077976 557.701466 " transform="matrix(3.133404,0,0,-3.133404,-199.911163,2206.542957)"/>
<path style="fill:none;stroke-width:1.2;stroke-linecap:round;stroke-linejoin:round;stroke:rgb(100%,100%,100%);stroke-opacity:1;stroke-miterlimit:10;" d="M 535.833101 516.355155 L 538.332629 522.274238 " transform="matrix(3.133404,0,0,-3.133404,-199.911163,2206.542957)"/>
<path style="fill:none;stroke-width:1.2;stroke-linecap:round;stroke-linejoin:round;stroke:rgb(100%,100%,100%);stroke-opacity:1;stroke-miterlimit:10;" d="M 544.33025 527.498937 C 536.708247 529.514766 528.681084 533.318288 520.246267 538.911995 L 524.18692 562.563392 L 543.997395 574.700752 C 553.168981 569.980944 560.78475 563.75768 566.844704 556.028465 L 567.540333 533.62995 L 547.327191 526.970359 " transform="matrix(3.133404,0,0,-3.133404,-199.911163,2206.542957)"/>
<path style="fill:none;stroke-width:1.2;stroke-linecap:round;stroke-linejoin:round;stroke:rgb(100%,100%,100%);stroke-opacity:1;stroke-miterlimit:10;" d="M 545.241549 529.437474 C 538.063353 531.24262 530.612141 534.725753 522.88916 539.885627 L 526.367306 561.079881 L 544.237998 572.049132 C 552.599263 567.42781 559.462057 561.521194 564.825135 554.326792 L 565.267695 535.11346 L 548.327002 529.174432 " transform="matrix(3.133404,0,0,-3.133404,-199.911163,2206.542957)"/>
<path style="fill:none;stroke-width:1.2;stroke-linecap:round;stroke-linejoin:round;stroke:rgb(100%,100%,100%);stroke-opacity:1;stroke-miterlimit:10;" d="M 538.04216 534.921477 C 540.796004 544.033223 542.414153 552.724849 542.896606 560.996356 C 547.262365 561.294304 551.479774 561.982454 555.547584 563.06205 C 557.302864 559.330835 559.763746 555.829002 562.930231 552.556552 C 555.921579 544.510689 549.662161 535.014975 544.153226 524.070657 C 540.723699 524.129249 537.887576 525.279905 535.646104 527.521377 C 535.672283 527.935264 535.384308 528.396524 534.78093 528.905156 C 533.306146 529.30907 531.78025 528.413977 530.203241 526.22237 C 532.985758 525.636446 535.098825 524.706447 536.54369 523.432373 C 535.500246 520.254669 534.094028 518.121655 532.323788 517.033332 C 532.085678 515.068615 532.796268 513.754649 534.456802 513.091432 C 536.250728 512.59028 537.59586 512.945575 538.490953 514.158563 C 537.997281 516.360142 538.615618 518.925743 540.345965 521.855364 C 542.229649 521.657147 544.395076 520.775767 546.838505 519.212472 C 547.929321 521.419038 547.652566 523.109492 546.008238 524.28508 " transform="matrix(3.133404,0,0,-3.133404,-199.911163,2206.542957)"/>
<path style="fill:none;stroke-width:1.2;stroke-linecap:round;stroke-linejoin:round;stroke:rgb(100%,100%,100%);stroke-opacity:1;stroke-miterlimit:10;" d="M 544.195612 555.881361 C 543.620908 550.209115 542.517625 544.342392 540.88701 538.281192 " transform="matrix(3.133404,0,0,-3.133404,-199.911163,2206.542957)"/>
<path style="fill:none;stroke-width:1.2;stroke-linecap:round;stroke-linejoin:round;stroke:rgb(100%,100%,100%);stroke-opacity:1;stroke-miterlimit:10;" d="M 546.142876 531.467016 C 550.608367 539.333362 555.319448 546.237296 560.277365 552.181311 C 557.473655 555.06356 555.513925 557.814911 554.398175 560.436611 C 552.659102 559.813287 550.979868 559.385687 549.361719 559.151317 " transform="matrix(3.133404,0,0,-3.133404,-199.911163,2206.542957)"/>
<path style="fill:none;stroke-width:1.2;stroke-linecap:round;stroke-linejoin:round;stroke:rgb(100%,100%,100%);stroke-opacity:1;stroke-miterlimit:10;" d="M 537.674399 528.283079 C 539.155416 526.87312 541.06528 526.167518 543.406484 526.167518 " transform="matrix(3.133404,0,0,-3.133404,-199.911163,2206.542957)"/>
<path style="fill:none;stroke-width:1.2;stroke-linecap:round;stroke-linejoin:round;stroke:rgb(100%,100%,100%);stroke-opacity:1;stroke-miterlimit:10;" d="M 542.309435 531.697646 L 542.927772 533.162457 " transform="matrix(3.133404,0,0,-3.133404,-199.911163,2206.542957)"/>
<path style="fill:none;stroke-width:1.2;stroke-linecap:round;stroke-linejoin:round;stroke:rgb(100%,100%,100%);stroke-opacity:1;stroke-miterlimit:10;" d="M 539.303767 553.427959 L 539.316234 545.685031 " transform="matrix(3.133404,0,0,-3.133404,-199.911163,2206.542957)"/>
<path style="fill:none;stroke-width:1.2;stroke-linecap:round;stroke-linejoin:round;stroke:rgb(100%,100%,100%);stroke-opacity:1;stroke-miterlimit:10;" d="M 563.304225 536.514692 L 563.180807 542.350249 L 558.647997 539.575212 L 557.906241 534.601088 Z M 563.304225 536.514692 " transform="matrix(3.133404,0,0,-3.133404,-199.911163,2206.542957)"/>
</g>
</svg>
