<?xml version="1.0" encoding="UTF-8"?>
<svg xmlns="http://www.w3.org/2000/svg" xmlns:xlink="http://www.w3.org/1999/xlink" width="916pt" height="458pt" viewBox="0 0 916 458" version="1.1">
<g id="surface1252088">
<path style=" stroke:none;fill-rule:evenodd;fill:rgb(0%,0%,0%);fill-opacity:1;" d="M 0.285156 0.285156 L 0.285156 457.582031 L 914.875 457.582031 L 914.875 0.285156 Z M 0.285156 0.285156 "/>
<path style="fill:none;stroke-width:0.8;stroke-linecap:round;stroke-linejoin:round;stroke:rgb(100%,100%,100%);stroke-opacity:1;stroke-miterlimit:10;" d="M 101.465664 668.458693 L 101.246987 673.846347 L 106.230089 675.694168 Z M 101.465664 668.458693 " transform="matrix(1.429048,0,0,-1.429048,0.28581,1097.794992)"/>
<path style="fill:none;stroke-width:0.8;stroke-linecap:round;stroke-linejoin:round;stroke:rgb(100%,100%,100%);stroke-opacity:1;stroke-miterlimit:10;" d="M 95.875734 694.339115 L 92.855258 695.916322 L 96.192815 697.76961 L 99.232426 696.08853 Z M 95.875734 694.339115 " transform="matrix(1.429048,0,0,-1.429048,0.28581,1097.794992)"/>
<path style="fill:none;stroke-width:0.8;stroke-linecap:round;stroke-linejoin:round;stroke:rgb(100%,100%,100%);stroke-opacity:1;stroke-miterlimit:10;" d="M 80.240329 667.070094 L 77.132383 668.923382 L 77.829416 672.821299 L 80.565611 670.50059 Z M 80.240329 667.070094 " transform="matrix(1.429048,0,0,-1.429048,0.28581,1097.794992)"/>
<path style="fill:none;stroke-width:0.8;stroke-linecap:round;stroke-linejoin:round;stroke:rgb(100%,100%,100%);stroke-opacity:1;stroke-miterlimit:10;" d="M 86.945512 678.102348 L 86.756903 683.689545 L 91.939548 685.545566 Z M 86.945512 678.102348 " transform="matrix(1.429048,0,0,-1.429048,0.28581,1097.794992)"/>
<path style="fill:none;stroke-width:0.8;stroke-linecap:round;stroke-linejoin:round;stroke:rgb(100%,100%,100%);stroke-opacity:1;stroke-miterlimit:10;" d="M 96.329489 655.499348 C 88.708596 657.51391 80.680417 661.31889 72.244952 666.911554 L 76.186605 690.564203 L 95.996006 702.700776 C 105.169506 697.980086 112.784932 691.758726 118.845018 684.028495 L 119.539317 661.630504 L 99.328097 654.969057 " transform="matrix(1.429048,0,0,-1.429048,0.28581,1097.794992)"/>
<path style="fill:none;stroke-width:0.8;stroke-linecap:round;stroke-linejoin:round;stroke:rgb(100%,100%,100%);stroke-opacity:1;stroke-miterlimit:10;" d="M 97.242465 657.437373 C 90.064393 659.241458 82.612975 662.726623 74.88821 667.884666 L 78.367908 689.079933 L 96.236551 700.049317 C 104.600946 695.427033 111.461936 689.52002 116.824989 682.328281 L 117.26781 663.114774 L 100.32581 657.174961 " transform="matrix(1.429048,0,0,-1.429048,0.28581,1097.794992)"/>
<path style="fill:none;stroke-width:0.8;stroke-linecap:round;stroke-linejoin:round;stroke:rgb(100%,100%,100%);stroke-opacity:1;stroke-miterlimit:10;" d="M 115.305184 664.514307 L 115.182178 670.350249 L 110.647364 667.575785 L 109.906596 662.600883 Z M 115.305184 664.514307 " transform="matrix(1.429048,0,0,-1.429048,0.28581,1097.794992)"/>
<path style="fill:none;stroke-width:0.8;stroke-linecap:round;stroke-linejoin:round;stroke:rgb(100%,100%,100%);stroke-opacity:1;stroke-miterlimit:10;" d="M 160.330775 655.499348 C 152.709882 657.51391 144.681704 661.31889 136.246239 666.911554 L 140.187892 690.564203 L 159.997293 702.700776 C 169.168059 697.980086 176.783485 691.758726 182.843571 684.028495 L 183.540604 661.630504 L 163.32665 654.969057 " transform="matrix(1.429048,0,0,-1.429048,0.28581,1097.794992)"/>
<path style="fill:none;stroke-width:0.8;stroke-linecap:round;stroke-linejoin:round;stroke:rgb(100%,100%,100%);stroke-opacity:1;stroke-miterlimit:10;" d="M 225.242305 657.437373 C 218.064233 659.241458 210.612815 662.726623 202.88805 667.884666 L 206.367748 689.079933 L 224.236391 700.049317 C 232.600786 695.427033 239.461776 689.52002 244.824829 682.328281 L 245.26765 663.114774 L 228.325651 657.174961 " transform="matrix(1.429048,0,0,-1.429048,0.28581,1097.794992)"/>
<path style="fill:none;stroke-width:0.8;stroke-linecap:round;stroke-linejoin:round;stroke:rgb(100%,100%,100%);stroke-opacity:1;stroke-miterlimit:10;" d="M 307.303578 664.514307 L 307.180572 670.350249 L 302.648491 667.575785 L 301.90499 662.600883 Z M 307.303578 664.514307 " transform="matrix(1.429048,0,0,-1.429048,0.28581,1097.794992)"/>
<path style="fill:none;stroke-width:0.8;stroke-linecap:round;stroke-linejoin:round;stroke:rgb(100%,100%,100%);stroke-opacity:1;stroke-miterlimit:10;" d="M 357.465345 668.458693 L 357.246668 673.846347 L 362.22977 675.694168 Z M 357.465345 668.458693 " transform="matrix(1.429048,0,0,-1.429048,0.28581,1097.794992)"/>
<path style="fill:none;stroke-width:0.8;stroke-linecap:round;stroke-linejoin:round;stroke:rgb(100%,100%,100%);stroke-opacity:1;stroke-miterlimit:10;" d="M 406.94648 678.102348 L 406.757871 683.689545 L 411.940515 685.545566 Z M 406.94648 678.102348 " transform="matrix(1.429048,0,0,-1.429048,0.28581,1097.794992)"/>
<path style="fill:none;stroke-width:0.8;stroke-linecap:round;stroke-linejoin:round;stroke:rgb(100%,100%,100%);stroke-opacity:1;stroke-miterlimit:10;" d="M 464.23985 667.070094 L 461.131903 668.923382 L 461.828936 672.821299 L 464.565132 670.50059 Z M 464.23985 667.070094 " transform="matrix(1.429048,0,0,-1.429048,0.28581,1097.794992)"/>
<path style="fill:none;stroke-width:0.8;stroke-linecap:round;stroke-linejoin:round;stroke:rgb(100%,100%,100%);stroke-opacity:1;stroke-miterlimit:10;" d="M 543.876542 694.339115 L 540.853332 695.916322 L 544.193623 697.76961 L 547.233233 696.08853 Z M 543.876542 694.339115 " transform="matrix(1.429048,0,0,-1.429048,0.28581,1097.794992)"/>
<path style="fill:none;stroke-width:0.8;stroke-linecap:round;stroke-linejoin:round;stroke:rgb(100%,100%,100%);stroke-opacity:1;stroke-miterlimit:10;" d="M 101.222386 611.88149 L 105.076568 621.700087 " transform="matrix(1.429048,0,0,-1.429048,0.28581,1097.794992)"/>
<path style="fill:none;stroke-width:0.8;stroke-linecap:round;stroke-linejoin:round;stroke:rgb(100%,100%,100%);stroke-opacity:1;stroke-miterlimit:10;" d="M 87.833888 580.353736 L 90.332272 586.274415 " transform="matrix(1.429048,0,0,-1.429048,0.28581,1097.794992)"/>
<path style="fill:none;stroke-width:0.8;stroke-linecap:round;stroke-linejoin:round;stroke:rgb(100%,100%,100%);stroke-opacity:1;stroke-miterlimit:10;" d="M 90.042525 598.922145 C 92.795122 608.032775 94.413331 616.725185 94.897154 624.996642 C 99.262494 625.29459 103.480226 625.983422 107.547618 627.06314 C 109.302501 623.331964 111.76535 619.827665 114.9307 616.558444 C 107.922102 608.511131 101.662474 599.015083 96.151813 588.0703 C 92.724052 588.130436 89.886718 589.281224 87.645279 591.522663 C 87.672613 591.935415 87.382866 592.397371 86.781505 592.905795 C 85.305435 593.307614 83.780163 592.413771 82.202955 590.221535 C 84.98562 589.636574 87.098586 588.707196 88.541854 587.433403 C 87.500405 584.254386 86.092672 582.122286 84.324122 581.034368 C 84.086311 579.069008 84.797011 577.754213 86.456223 577.089982 C 88.252107 576.589758 89.594237 576.945108 90.490813 578.158765 C 89.996056 580.359203 90.616552 582.925924 92.346834 585.856195 C 94.230189 585.656652 96.395092 584.776478 98.838807 583.212937 C 99.929458 585.418841 99.653379 587.108121 98.007834 588.28351 " transform="matrix(1.429048,0,0,-1.429048,0.28581,1097.794992)"/>
<path style="fill:none;stroke-width:0.8;stroke-linecap:round;stroke-linejoin:round;stroke:rgb(100%,100%,100%);stroke-opacity:1;stroke-miterlimit:10;" d="M 96.195549 619.882334 C 95.621522 614.2104 94.517203 608.341656 92.885326 602.28157 " transform="matrix(1.429048,0,0,-1.429048,0.28581,1097.794992)"/>
<path style="fill:none;stroke-width:0.8;stroke-linecap:round;stroke-linejoin:round;stroke:rgb(100%,100%,100%);stroke-opacity:1;stroke-miterlimit:10;" d="M 98.141774 595.467049 C 102.608251 603.333953 107.320741 610.238679 112.276508 616.181226 C 109.474709 619.062296 107.514816 621.814892 106.39683 624.436282 C 104.658348 623.813053 102.980002 623.383899 101.361793 623.151555 " transform="matrix(1.429048,0,0,-1.429048,0.28581,1097.794992)"/>
<path style="fill:none;stroke-width:0.8;stroke-linecap:round;stroke-linejoin:round;stroke:rgb(100%,100%,100%);stroke-opacity:1;stroke-miterlimit:10;" d="M 89.673508 592.282565 C 91.155044 590.872099 93.065735 590.166865 95.405578 590.166865 " transform="matrix(1.429048,0,0,-1.429048,0.28581,1097.794992)"/>
<path style="fill:none;stroke-width:0.8;stroke-linecap:round;stroke-linejoin:round;stroke:rgb(100%,100%,100%);stroke-opacity:1;stroke-miterlimit:10;" d="M 94.30946 595.69666 L 94.927222 597.161795 " transform="matrix(1.429048,0,0,-1.429048,0.28581,1097.794992)"/>
<path style="fill:none;stroke-width:0.8;stroke-linecap:round;stroke-linejoin:round;stroke:rgb(100%,100%,100%);stroke-opacity:1;stroke-miterlimit:10;" d="M 154.041079 598.922145 C 156.796409 608.032775 158.414618 616.725185 158.895708 624.996642 C 163.261047 625.29459 167.478779 625.983422 171.546171 627.06314 C 173.303788 623.331964 175.763904 619.827665 178.929253 616.558444 C 171.920656 608.511131 165.66376 599.015083 160.1531 588.0703 C 156.722605 588.130436 153.888005 589.281224 151.646566 591.522663 C 151.671167 591.935415 151.384153 592.397371 150.780058 592.905795 C 149.306722 593.307614 147.78145 592.413771 146.204242 590.221535 C 148.984173 589.636574 151.099873 588.707196 152.543141 587.433403 C 151.501692 584.254386 150.093959 582.122286 148.322675 581.034368 C 148.084864 579.069008 148.795564 577.754213 150.457509 577.089982 C 152.250661 576.589758 153.595524 576.945108 154.4921 578.158765 C 153.997343 580.359203 154.615106 582.925924 156.345387 585.856195 C 158.228743 585.656652 160.393645 584.776478 162.840094 583.212937 C 163.928012 585.418841 163.651932 587.108121 162.009121 588.28351 " transform="matrix(1.429048,0,0,-1.429048,0.28581,1097.794992)"/>
<path style="fill:none;stroke-width:0.8;stroke-linecap:round;stroke-linejoin:round;stroke:rgb(100%,100%,100%);stroke-opacity:1;stroke-miterlimit:10;" d="M 226.144348 595.467049 C 230.608092 603.333953 235.320581 610.238679 240.276348 616.181226 C 237.474549 619.062296 235.514657 621.814892 234.396671 624.436282 C 232.658189 623.813053 230.979843 623.383899 229.361633 623.151555 " transform="matrix(1.429048,0,0,-1.429048,0.28581,1097.794992)"/>
<path style="fill:none;stroke-width:0.8;stroke-linecap:round;stroke-linejoin:round;stroke:rgb(100%,100%,100%);stroke-opacity:1;stroke-miterlimit:10;" d="M 288.196676 619.882334 C 287.619915 614.2104 286.51833 608.341656 284.886453 602.28157 " transform="matrix(1.429048,0,0,-1.429048,0.28581,1097.794992)"/>
<path style="fill:none;stroke-width:0.8;stroke-linecap:round;stroke-linejoin:round;stroke:rgb(100%,100%,100%);stroke-opacity:1;stroke-miterlimit:10;" d="M 357.222067 611.88149 L 361.076249 621.700087 " transform="matrix(1.429048,0,0,-1.429048,0.28581,1097.794992)"/>
<path style="fill:none;stroke-width:0.8;stroke-linecap:round;stroke-linejoin:round;stroke:rgb(100%,100%,100%);stroke-opacity:1;stroke-miterlimit:10;" d="M 407.834855 580.353736 L 410.33324 586.274415 " transform="matrix(1.429048,0,0,-1.429048,0.28581,1097.794992)"/>
<path style="fill:none;stroke-width:0.8;stroke-linecap:round;stroke-linejoin:round;stroke:rgb(100%,100%,100%);stroke-opacity:1;stroke-miterlimit:10;" d="M 473.675762 592.282565 C 475.154565 590.872099 477.065255 590.166865 479.405099 590.166865 " transform="matrix(1.429048,0,0,-1.429048,0.28581,1097.794992)"/>
<path style="fill:none;stroke-width:0.8;stroke-linecap:round;stroke-linejoin:round;stroke:rgb(100%,100%,100%);stroke-opacity:1;stroke-miterlimit:10;" d="M 542.310268 595.69666 L 542.92803 597.161795 " transform="matrix(1.429048,0,0,-1.429048,0.28581,1097.794992)"/>
<path style="fill:none;stroke-width:0.8;stroke-linecap:round;stroke-linejoin:round;stroke:rgb(100%,100%,100%);stroke-opacity:1;stroke-miterlimit:10;" d="M 99.656112 560.082379 L 99.776385 537.698056 L 91.302651 532.526345 L 82.891788 537.744525 L 82.845319 561.615851 L 91.316319 566.588019 L 98.920811 562.766639 " transform="matrix(1.429048,0,0,-1.429048,0.28581,1097.794992)"/>
<path style="fill:none;stroke-width:0.8;stroke-linecap:round;stroke-linejoin:round;stroke:rgb(100%,100%,100%);stroke-opacity:1;stroke-miterlimit:10;" d="M 97.543146 560.085112 L 97.493943 538.903513 L 91.638867 535.210605 " transform="matrix(1.429048,0,0,-1.429048,0.28581,1097.794992)"/>
<path style="fill:none;stroke-width:0.8;stroke-linecap:round;stroke-linejoin:round;stroke:rgb(100%,100%,100%);stroke-opacity:1;stroke-miterlimit:10;" d="M 89.028411 536.5172 L 85.034822 538.90898 L 84.961019 560.350258 L 91.316319 563.980296 L 94.992825 562.351153 " transform="matrix(1.429048,0,0,-1.429048,0.28581,1097.794992)"/>
<path style="fill:none;stroke-width:0.8;stroke-linecap:round;stroke-linejoin:round;stroke:rgb(100%,100%,100%);stroke-opacity:1;stroke-miterlimit:10;" d="M 91.302651 553.426398 L 91.316319 545.685233 " transform="matrix(1.429048,0,0,-1.429048,0.28581,1097.794992)"/>
<path style="fill:none;stroke-width:0.8;stroke-linecap:round;stroke-linejoin:round;stroke:rgb(100%,100%,100%);stroke-opacity:1;stroke-miterlimit:10;" d="M 163.657399 560.082379 L 163.774938 537.698056 L 155.301205 532.526345 L 146.893075 537.744525 L 146.846606 561.615851 L 155.317606 566.588019 L 162.919364 562.766639 " transform="matrix(1.429048,0,0,-1.429048,0.28581,1097.794992)"/>
<path style="fill:none;stroke-width:0.8;stroke-linecap:round;stroke-linejoin:round;stroke:rgb(100%,100%,100%);stroke-opacity:1;stroke-miterlimit:10;" d="M 217.028251 536.5172 L 213.034662 538.90898 L 212.960859 560.350258 L 219.316159 563.980296 L 222.992666 562.351153 " transform="matrix(1.429048,0,0,-1.429048,0.28581,1097.794992)"/>
<path style="fill:none;stroke-width:0.8;stroke-linecap:round;stroke-linejoin:round;stroke:rgb(100%,100%,100%);stroke-opacity:1;stroke-miterlimit:10;" d="M 289.544273 560.085112 L 289.495071 538.903513 L 283.639994 535.210605 " transform="matrix(1.429048,0,0,-1.429048,0.28581,1097.794992)"/>
<path style="fill:none;stroke-width:0.8;stroke-linecap:round;stroke-linejoin:round;stroke:rgb(100%,100%,100%);stroke-opacity:1;stroke-miterlimit:10;" d="M 347.302332 553.426398 L 347.315999 545.685233 " transform="matrix(1.429048,0,0,-1.429048,0.28581,1097.794992)"/>
<path style="fill:none;stroke-width:0.8;stroke-linecap:round;stroke-linejoin:round;stroke:rgb(100%,100%,100%);stroke-opacity:1;stroke-miterlimit:10;" d="M 549.463739 540.458853 L 549.247795 545.846507 L 554.228163 547.694328 Z M 549.463739 540.458853 " transform="matrix(1.429048,0,0,-1.429048,0.28581,1097.794992)"/>
<path style="fill:none;stroke-width:0.8;stroke-linecap:round;stroke-linejoin:round;stroke:rgb(100%,100%,100%);stroke-opacity:1;stroke-miterlimit:10;" d="M 543.876542 566.339274 L 540.853332 567.913749 L 544.193623 569.769769 L 547.233233 568.08869 Z M 543.876542 566.339274 " transform="matrix(1.429048,0,0,-1.429048,0.28581,1097.794992)"/>
<path style="fill:none;stroke-width:0.8;stroke-linecap:round;stroke-linejoin:round;stroke:rgb(100%,100%,100%);stroke-opacity:1;stroke-miterlimit:10;" d="M 528.241137 539.070254 L 525.13319 540.923542 L 525.82749 544.821459 L 528.563686 542.500749 Z M 528.241137 539.070254 " transform="matrix(1.429048,0,0,-1.429048,0.28581,1097.794992)"/>
<path style="fill:none;stroke-width:0.8;stroke-linecap:round;stroke-linejoin:round;stroke:rgb(100%,100%,100%);stroke-opacity:1;stroke-miterlimit:10;" d="M 534.94632 550.102508 L 534.757711 555.689705 L 539.940356 557.545726 Z M 534.94632 550.102508 " transform="matrix(1.429048,0,0,-1.429048,0.28581,1097.794992)"/>
<path style="fill:none;stroke-width:0.8;stroke-linecap:round;stroke-linejoin:round;stroke:rgb(100%,100%,100%);stroke-opacity:1;stroke-miterlimit:10;" d="M 547.65692 560.082379 L 547.777192 537.698056 L 539.303459 532.526345 L 530.892595 537.744525 L 530.846127 561.615851 L 539.317126 566.588019 L 546.918885 562.766639 " transform="matrix(1.429048,0,0,-1.429048,0.28581,1097.794992)"/>
<path style="fill:none;stroke-width:0.8;stroke-linecap:round;stroke-linejoin:round;stroke:rgb(100%,100%,100%);stroke-opacity:1;stroke-miterlimit:10;" d="M 545.543954 560.085112 L 545.494751 538.903513 L 539.639675 535.210605 " transform="matrix(1.429048,0,0,-1.429048,0.28581,1097.794992)"/>
<path style="fill:none;stroke-width:0.8;stroke-linecap:round;stroke-linejoin:round;stroke:rgb(100%,100%,100%);stroke-opacity:1;stroke-miterlimit:10;" d="M 537.029218 536.5172 L 533.03563 538.90898 L 532.961826 560.350258 L 539.317126 563.980296 L 542.993633 562.351153 " transform="matrix(1.429048,0,0,-1.429048,0.28581,1097.794992)"/>
<path style="fill:none;stroke-width:0.8;stroke-linecap:round;stroke-linejoin:round;stroke:rgb(100%,100%,100%);stroke-opacity:1;stroke-miterlimit:10;" d="M 549.22046 547.880203 L 553.077376 557.701533 " transform="matrix(1.429048,0,0,-1.429048,0.28581,1097.794992)"/>
<path style="fill:none;stroke-width:0.8;stroke-linecap:round;stroke-linejoin:round;stroke:rgb(100%,100%,100%);stroke-opacity:1;stroke-miterlimit:10;" d="M 535.834695 516.355182 L 538.33308 522.273128 " transform="matrix(1.429048,0,0,-1.429048,0.28581,1097.794992)"/>
<path style="fill:none;stroke-width:0.8;stroke-linecap:round;stroke-linejoin:round;stroke:rgb(100%,100%,100%);stroke-opacity:1;stroke-miterlimit:10;" d="M 544.330296 527.499508 C 536.709403 529.51407 528.681224 533.319049 520.24576 538.911713 L 524.187412 562.561629 L 543.996814 574.700935 C 553.16758 569.980246 560.785739 563.758886 566.845825 556.028654 L 567.540125 533.630664 L 547.326171 526.969216 " transform="matrix(1.429048,0,0,-1.429048,0.28581,1097.794992)"/>
<path style="fill:none;stroke-width:0.8;stroke-linecap:round;stroke-linejoin:round;stroke:rgb(100%,100%,100%);stroke-opacity:1;stroke-miterlimit:10;" d="M 545.240539 529.437533 C 538.062467 531.241618 530.613782 534.724049 522.889018 539.884826 L 526.368715 561.080093 L 544.237359 572.049477 C 552.59902 567.427192 559.462744 561.52018 564.825797 554.325707 L 565.268618 535.114934 L 548.326618 529.17512 " transform="matrix(1.429048,0,0,-1.429048,0.28581,1097.794992)"/>
<path style="fill:none;stroke-width:0.8;stroke-linecap:round;stroke-linejoin:round;stroke:rgb(100%,100%,100%);stroke-opacity:1;stroke-miterlimit:10;" d="M 538.043333 534.920858 C 540.795929 544.034222 542.414139 552.726632 542.897962 560.998089 C 547.263301 561.293303 551.4783 561.982135 555.548426 563.061853 C 557.303308 559.330677 559.763425 555.829112 562.931507 552.557157 C 555.92291 544.509844 549.663281 535.013796 544.152621 524.069013 C 540.724859 524.129149 537.887526 525.279937 535.646086 527.521376 C 535.673421 527.934129 535.383674 528.396084 534.782312 528.904508 C 533.306243 529.30906 531.780971 528.415218 530.203763 526.222981 C 532.986428 525.63802 535.099394 524.70591 536.542662 523.432116 C 535.501213 520.255833 534.09348 518.120999 532.322196 517.033081 C 532.084385 515.067721 532.797819 513.755659 534.45703 513.091428 C 536.250182 512.591205 537.595045 512.946555 538.491621 514.157478 C 537.996864 516.360649 538.614627 518.92737 540.344908 521.854908 C 542.230997 521.658099 544.393166 520.775191 546.839615 519.21165 C 547.930266 521.417554 547.651453 523.109568 546.008642 524.284956 " transform="matrix(1.429048,0,0,-1.429048,0.28581,1097.794992)"/>
<path style="fill:none;stroke-width:0.8;stroke-linecap:round;stroke-linejoin:round;stroke:rgb(100%,100%,100%);stroke-opacity:1;stroke-miterlimit:10;" d="M 544.196357 555.881047 C 543.619596 550.209113 542.518011 544.343103 540.886134 538.280283 " transform="matrix(1.429048,0,0,-1.429048,0.28581,1097.794992)"/>
<path style="fill:none;stroke-width:0.8;stroke-linecap:round;stroke-linejoin:round;stroke:rgb(100%,100%,100%);stroke-opacity:1;stroke-miterlimit:10;" d="M 546.142582 531.465762 C 550.609059 539.332666 555.318815 546.237392 560.277315 552.182673 C 557.472783 555.063742 555.512891 557.813605 554.397638 560.437729 C 552.659156 559.8145 550.98081 559.385346 549.3626 559.150268 " transform="matrix(1.429048,0,0,-1.429048,0.28581,1097.794992)"/>
<path style="fill:none;stroke-width:0.8;stroke-linecap:round;stroke-linejoin:round;stroke:rgb(100%,100%,100%);stroke-opacity:1;stroke-miterlimit:10;" d="M 537.674315 528.281278 C 539.155852 526.873545 541.066542 526.168312 543.406386 526.168312 " transform="matrix(1.429048,0,0,-1.429048,0.28581,1097.794992)"/>
<path style="fill:none;stroke-width:0.8;stroke-linecap:round;stroke-linejoin:round;stroke:rgb(100%,100%,100%);stroke-opacity:1;stroke-miterlimit:10;" d="M 542.310268 531.698106 L 542.92803 533.163242 " transform="matrix(1.429048,0,0,-1.429048,0.28581,1097.794992)"/>
<path style="fill:none;stroke-width:0.8;stroke-linecap:round;stroke-linejoin:round;stroke:rgb(100%,100%,100%);stroke-opacity:1;stroke-miterlimit:10;" d="M 539.303459 553.426398 L 539.317126 545.685233 " transform="matrix(1.429048,0,0,-1.429048,0.28581,1097.794992)"/>
<path style="fill:none;stroke-width:0.8;stroke-linecap:round;stroke-linejoin:round;stroke:rgb(100%,100%,100%);stroke-opacity:1;stroke-miterlimit:10;" d="M 563.303258 536.514467 L 563.180252 542.350409 L 558.648172 539.575945 L 557.90467 534.601043 Z M 563.303258 536.514467 " transform="matrix(1.429048,0,0,-1.429048,0.28581,1097.794992)"/>
</g>
</svg>
