<?xml version="1.0" encoding="utf-8"?>
<!-- Generator: Adobe Illustrator 24.3.0, SVG Export Plug-In . SVG Version: 6.00 Build 0)  -->
<svg version="1.1" id="Layer_1" xmlns="http://www.w3.org/2000/svg" xmlns:xlink="http://www.w3.org/1999/xlink" x="0px" y="0px"
	 viewBox="0 0 1280 1280" style="enable-background:new 0 0 1280 1280;" xml:space="preserve">
<g>
	<path d="M618.6,994.2c-31.9,0-103-20.4-125.5-27c-10.5-3.1-102.7-30.8-115.3-45.4c-12.5-14.4-21.4-109.8-23-128.7
		c-2.3-27-9.2-116.7,1.5-139.7c4.2-9,17.8-12.1,47.2-10.7c19.5,0.9,45.8,4,78.2,9c54.9,8.6,109.1,20.2,109.7,20.3
		c4,0.9,6.6,4.9,5.8,8.9c-0.9,4-4.9,6.6-8.9,5.8c-0.5-0.1-51.3-11-104.1-19.4c-96.3-15.4-112.2-8.6-114.4-7.2
		c-5.6,13.3-5.6,65.5,0,130.6c2.5,29.5,6,58.1,9.6,80.5c5.6,34.4,9.5,40.1,9.9,40.7c4.2,4.7,41.6,21,108.5,40.9
		c61,18.1,110.4,28.3,125.9,26c17.8-2.6,92.9-21.3,166.7-42.4c129.3-37,147.1-50,149.3-52.2c3.6-10.1,16-64.7,24.7-123.7
		c4.8-32.9,7.6-60.7,8.1-82.5c0.8-32.8-3.8-43.1-6-46.2c-6.4-3.8-50.2-4.6-172.9,18.6c-83.9,15.9-155.5,34.1-168.7,41
		c-1.5,22.1-1,168.4-0.4,265.9c0,4.1-3.3,7.5-7.4,7.6c0,0,0,0-0.1,0c-4.1,0-7.5-3.3-7.5-7.4c-0.2-26.3-1.7-257.3,0.8-271.1
		c1-5.3,5.8-8.4,21.3-13.5c10.1-3.3,24.1-7.3,41.8-11.7c52.3-13.1,123.1-27.4,180.3-36.4c32.7-5.1,59.4-8.3,79.4-9.5
		c33-1.9,41,2.2,44.8,6.8c12.5,15.5,12.9,61.5,1.3,140.5c-8.4,57.1-21.2,115.8-25.8,127.5c-2.1,5.4-6.5,16.8-154.4,59.3
		c-76.1,21.9-154.2,41.3-173.1,44.1C623.7,994,621.3,994.2,618.6,994.2z M369.5,660.3L369.5,660.3L369.5,660.3z M966.5,632.1
		L966.5,632.1L966.5,632.1z"/>
</g>
<g>
	<path d="M794.3,746.6c-6.8,0-12.6-0.9-16.3-3.3c-7.2-4.6-10.2-16.3-9.7-37.9c0.3-13.8,2-26.4,2-27c0.5-4.1,4.3-7,8.4-6.5
		c4.1,0.5,7,4.3,6.5,8.4c0,0.1-1.5,11.6-1.9,24c-0.6,20.6,2.4,25.7,3,26.4c2.6,1.2,14.4,1.7,32.6-2.3c19.3-4.2,28.4-9.8,29.8-11.8
		c2.9-9.9,3.1-40.4,3-51.4c-0.1-4.1,3.3-7.5,7.4-7.6c0,0,0.1,0,0.1,0c4.1,0,7.4,3.3,7.5,7.4c0.1,4.3,0.4,42.4-3.6,56.1
		c-1.9,6.5-8.9,11.7-22,16.5C830.3,741.6,809.8,746.6,794.3,746.6z M786.4,730.8L786.4,730.8L786.4,730.8z M848.8,716.5L848.8,716.5
		L848.8,716.5z"/>
</g>
<g>
	<g>
		<path d="M340.6,611.2c-2.3,0-4.6-1.1-6.1-3.1c-0.7-1-17-23.9-29.2-59.3c-16.2-47.1-16.9-93.9-2.2-135.3
			c11.8-33.1,30.9-59.8,56.7-79.2c27-20.3,52.3-25.5,62-26.8c10.2-1.4,23.5-1.5,28.7,5.9c3.2,4.5,6.7,9.6-31.9,122.3
			c-1.3,3.9-5.6,6-9.5,4.7c-3.9-1.3-6-5.6-4.7-9.5c26.9-78.5,32.1-101.7,32.8-108.6c-4.6-0.9-16.7-0.9-34.1,5.4
			c-22.9,8.3-64.5,31.2-85.7,90.9c-32.9,92.4,28.8,179.9,29.4,180.8c2.4,3.4,1.6,8.1-1.7,10.5C343.6,610.7,342.1,611.2,340.6,611.2z
			 M438.9,322.7C438.9,322.7,438.9,322.7,438.9,322.7L438.9,322.7z M437.3,319.9C437.3,319.9,437.3,319.9,437.3,319.9
			S437.3,319.9,437.3,319.9z"/>
	</g>
	<g>
		<path d="M780.6,544.1c-1,0-2-0.2-3-0.6c-3.8-1.7-5.5-6.1-3.9-9.9c0.2-0.5,23.4-53.9,46-109.5c35.4-87.4,42.3-113.5,43.3-121.3
			c-5.6-1.1-21.9-2.7-69.6-1.5c-34.9,0.9-81.5,3.1-138.6,6.6c-97.2,6-192.3,13.7-193.2,13.8c-4.1,0.3-7.7-2.7-8.1-6.9
			s2.7-7.7,6.9-8.1c1-0.1,101.9-8.3,202.3-14.4c59-3.6,106.4-5.7,140.7-6.3c20.5-0.4,36.6-0.2,47.9,0.5c17.5,1.1,23.8,3.2,26,8.8
			c2,5,5.3,13.3-42.4,131.1c-23,57-47.2,112.6-47.5,113.1C786.3,542.4,783.5,544.1,780.6,544.1z"/>
	</g>
	<g>
		<path d="M766.5,364.7c-1.8,0-3.6-0.6-5-1.9c-3.1-2.8-3.3-7.5-0.5-10.6c26.3-29.2,55.4-43,56.6-43.6c3.7-1.8,8.2-0.2,10,3.6
			c1.8,3.7,0.2,8.2-3.6,10c-0.3,0.1-27.7,13.3-51.9,40.1C770.6,363.9,768.6,364.7,766.5,364.7z"/>
	</g>
	<g>
		<path d="M758.4,558.4c-2.5,0-5-1.3-6.4-3.6c-1.2-1.9-28.9-48.2-30.5-101.4c-0.1-4.1,3.1-7.6,7.3-7.7c4.1-0.1,7.6,3.1,7.7,7.3
			c1.4,49.2,28,93.6,28.3,94.1c2.1,3.5,1,8.2-2.5,10.3C761,558.1,759.7,558.4,758.4,558.4z"/>
	</g>
</g>
<g>
	<g>
		<path d="M610,663.7c-3.4,0-6.4-2.3-7.3-5.7c-0.1-0.2-6.3-24.3-22-48.7c-20.5-31.8-46.7-49.3-77.9-51.9
			c-37.5-3.2-69.6,7.1-95.5,30.4c-19.5,17.6-28,36.5-28.1,36.7c-1.7,3.8-6.1,5.5-9.9,3.8c-3.8-1.7-5.5-6.1-3.8-9.9
			c0.4-0.9,9.6-21.6,31.3-41.3c20-18.2,54.9-39,107.3-34.6c35.7,3,66.6,23.4,89.5,59.1c16.9,26.4,23.4,51.7,23.7,52.7
			c1,4-1.4,8.1-5.4,9.1C611.3,663.6,610.6,663.7,610,663.7z"/>
	</g>
	<g>
		<path d="M961.9,601.4c-2.9,0-5.7-1.7-6.9-4.6c-0.1-0.2-8.6-20.1-27.4-39.6c-24.9-25.7-55.2-38.6-90.1-38.3
			c-4.2,0-9.7,0.2-16.3,0.6c-4.1,0.2-7.7-2.9-7.9-7c-0.2-4.1,2.9-7.7,7-7.9c6.8-0.4,12.6-0.6,17-0.7c0.4,0,0.8,0,1.1,0
			c38.4,0,73,15,100.2,43.3c20.6,21.5,29.7,43,30.1,43.9c1.6,3.8-0.2,8.2-4,9.8C963.8,601.2,962.9,601.4,961.9,601.4z"/>
	</g>
	<g>
		<path d="M560.3,545.2c-3.3,0-4.1-0.4-5.1-0.9c-3.7-1.9-5.2-6.4-3.3-10.1c1.6-3.1,5-4.6,8.2-3.9c6.4,0.2,49-4.5,90.2-9.1
			c22-2.4,47-5.2,70.8-7.7c4.1-0.4,7.8,2.6,8.2,6.7s-2.6,7.8-6.7,8.2c-23.8,2.5-48.7,5.3-70.7,7.7
			C587.7,543.2,567.7,545.2,560.3,545.2z M562,530.9C562,530.9,562,530.9,562,530.9C562,530.9,562,530.9,562,530.9z M562,530.9
			C562,530.9,562,530.9,562,530.9C562,530.9,562,530.9,562,530.9z M559.8,530.3L559.8,530.3z"/>
	</g>
</g>
<g>
	<g>
		<path d="M856.6,424.1c-3.8,0-7.1-2.9-7.5-6.9c-0.4-4.1,2.7-7.8,6.8-8.1c50.8-4.4,88.5-7.9,88.9-8c4.1-0.4,7.8,2.6,8.2,6.8
			s-2.6,7.8-6.8,8.2c-0.4,0-38.2,3.6-89,8C857,424.1,856.8,424.1,856.6,424.1z"/>
	</g>
	<g>
		<path d="M364.7,600.4c-4,0-7.4-3.2-7.5-7.3c0-1.1-0.7-26.3,6.3-57.6c9.3-42,28-74.7,54.1-94.6c26.8-20.4,52.2-30.8,77.8-31.8
			c22.3-0.9,40.9,5.4,57.3,11c6.5,2.2,12.6,4.3,18.5,5.7c7.7,1.9,48.1,2.9,231.8-12.3c4.1-0.3,7.8,2.7,8.1,6.9
			c0.3,4.1-2.7,7.8-6.9,8.1c-213.6,17.6-230.9,13.3-236.6,11.9c-6.4-1.6-12.9-3.8-19.7-6.1c-31.4-10.6-67.1-22.7-121.2,18.5
			c-56.5,43.1-54.5,138.9-54.5,139.8c0.1,4.1-3.1,7.6-7.3,7.7C364.8,600.4,364.7,600.4,364.7,600.4z"/>
	</g>
	<g>
		<path d="M926,395.2c-1.3,0-2.7-0.4-3.9-1.1c-6.6-4-17.4-9-31.5-10.4c-1.9-0.2-10-0.3-17.3-0.1c-4.1,0.1-7.6-3.2-7.7-7.3
			c-0.1-4.1,3.2-7.6,7.3-7.7c7-0.2,16.1-0.1,19.1,0.2c17,1.6,29.9,7.7,37.8,12.5c3.5,2.2,4.7,6.8,2.5,10.3
			C931,393.9,928.5,395.2,926,395.2z"/>
	</g>
	<g>
		<path d="M535.7,404.1c-3.9,0-7.2-3-7.5-7c-0.3-4.1,2.8-7.7,7-8c1.8-0.1,177.7-12.2,281.4-17.8c4.2-0.2,7.7,3,7.9,7.1
			s-3,7.7-7.1,7.9C713.8,391.9,538,404,536.2,404.1C536,404.1,535.9,404.1,535.7,404.1z"/>
	</g>
	<g>
		<path d="M450.9,540.6c-2.2,0-4.4-1-5.9-2.9c-2.5-3.3-2-8,1.3-10.5l102.6-79.9c3.3-2.5,8-2,10.5,1.3s2,8-1.3,10.5L455.5,539
			C454.1,540.1,452.5,540.6,450.9,540.6z"/>
	</g>
	<g>
		<path d="M794.7,565.3c-2.1,0-4.1-0.8-5.6-2.5c-2.8-3.1-2.5-7.8,0.6-10.6l22.3-20c3.1-2.8,7.8-2.5,10.6,0.6
			c2.8,3.1,2.5,7.8-0.6,10.6l-22.3,20C798.3,564.7,796.5,565.3,794.7,565.3z"/>
	</g>
	<g>
		<path d="M870.7,496.9c-2.1,0-4.1-0.8-5.6-2.5c-2.8-3.1-2.5-7.8,0.6-10.6l68.5-61.7c3.1-2.8,7.8-2.5,10.6,0.6
			c2.8,3.1,2.5,7.8-0.6,10.6L875.7,495C874.3,496.3,872.5,496.9,870.7,496.9z"/>
	</g>
</g>
<g>
	<g>
		<path d="M612.8,601.4c-3.7,0-6.9-2.7-7.4-6.5c-0.5-4.1,2.3-7.9,6.5-8.4c76.9-10.1,119.2-15.1,129.1-15.2
			c27.5-0.1,120.3,5.1,170,14.2c4.1,0.8,6.8,4.7,6,8.7c-0.8,4.1-4.7,6.8-8.7,6c-48.1-8.8-140.9-14.1-167.2-14
			c-6.3,0-33.5,2.7-127.2,15C613.5,601.4,613.2,601.4,612.8,601.4z"/>
	</g>
	<g>
		<path d="M404.2,629.9c-3.7,0-6.9-2.7-7.4-6.5c-0.6-4.1,2.3-7.9,6.4-8.5c0.7-0.1,72.6-10.2,149.2-20.6c4.1-0.6,7.9,2.3,8.4,6.4
			s-2.3,7.9-6.4,8.4c-76.5,10.3-148.4,20.4-149.1,20.5C404.9,629.9,404.5,629.9,404.2,629.9z"/>
	</g>
</g>
<g>
	<path d="M482,851.7c-2.6,0-5.4-0.2-8.2-0.7c-23.6-3.7-40.5-20.4-48.7-48.1c-5.9-19.9-5.4-38.5-5.3-39.3c0.1-4.1,3.6-7.4,7.8-7.2
		c4.1,0.1,7.4,3.6,7.2,7.7l0,0c0,0.2-0.5,17.2,4.8,34.8c6.6,21.9,19,34.4,36.6,37.2c9,1.4,16.2-0.3,21.9-5.4
		c14.6-13.1,16.3-45.6,15.8-57c-0.2-4.1,3-7.7,7.1-7.9c4.1-0.2,7.7,3,7.9,7.1c0.1,2,2.2,48.3-20.7,68.9
		C500.9,848.5,492.1,851.7,482,851.7z"/>
</g>
<g>
	<path d="M882.4,888.9c-0.5,0-1-0.1-1.6-0.2c-4.1-0.9-6.6-4.8-5.8-8.9c7.1-33.5,22.2-218.4,22.4-220.3c0.3-4.1,4-7.2,8.1-6.9
		c4.1,0.3,7.2,4,6.9,8.1c-0.6,7.6-15.4,187.7-22.7,222.1C888.9,886.4,885.8,888.9,882.4,888.9z"/>
</g>
<g>
	<path d="M727.7,933.1c0,0-0.1,0-0.1,0c-4.1-0.1-7.4-3.5-7.4-7.6l3.8-235.1c0.1-4.1,3.4-7.4,7.5-7.4c0,0,0.1,0,0.1,0
		c4.1,0.1,7.4,3.5,7.4,7.6l-3.8,235.1C735.2,929.9,731.8,933.1,727.7,933.1z"/>
</g>
</svg>
