<?xml version="1.0" encoding="utf-8"?>
<!-- Generator: Adobe Illustrator 24.3.0, SVG Export Plug-In . SVG Version: 6.00 Build 0)  -->
<svg version="1.1" id="Layer_1" xmlns="http://www.w3.org/2000/svg" xmlns:xlink="http://www.w3.org/1999/xlink" x="0px" y="0px"
	 viewBox="0 0 1280 1280" style="enable-background:new 0 0 1280 1280;" xml:space="preserve">
<style type="text/css">
	.st0{fill:#89BD24;}
</style>
<g>
	<path class="st0" d="M975.8,623.8c-3-3.8-11.1-13.8-121.9,3.5c-57.2,9-127.8,23.2-180.1,36.4c-17.6,4.4-31.6,8.3-41.6,11.7
		c-15.8,5.2-18.9,7.9-19.6,11.6c-2.5,13.5-1,244.3-0.8,270.6c0,2.7,2.3,5,5,5c0,0,0,0,0,0c2.8,0,5-2.3,5-5
		c-0.7-99.7-1.1-249.9,0.5-267.4c10.1-6.6,83.8-25.5,172.1-42.2c45.4-8.6,85.6-14.8,116-18c50.5-5.3,57.1-0.3,57.6,0.2
		c9.6,12,9.2,59.7-1.3,130.8c-8.7,59-21.2,114.8-25,124.7c-0.8,1.1-6.7,6.9-48.1,21.3c-25.3,8.9-60.1,19.7-100.7,31.3
		c-74.7,21.4-150.8,40.4-169,43.1c-15.9,2.3-65.8-7.9-127.2-26.2c-61.9-18.4-104.2-35.6-109.4-41.6c-5.1-5.9-14-53.1-20-121.6
		c-5.8-66.8-5.7-120.3,0.4-133.3c0.1-0.2,3.5-5.1,36.6-3.4c19.2,1,45,4,76.6,9c54.1,8.5,107.3,19.9,107.9,20
		c2.7,0.6,5.4-1.1,5.9-3.8c0.6-2.7-1.1-5.4-3.8-5.9c-0.5-0.1-54.7-11.7-109.5-20.3c-100.7-15.8-118.6-8.7-122.7,0.2
		c-10.4,22.4-3.6,111.6-1.3,138.4c1,11.5,10.2,113.2,22.4,127.3c12.1,14,103.7,41.5,114.2,44.6c28.7,8.5,55.7,15.5,78.1,20.3
		c20.7,4.4,36.4,6.6,46.7,6.6c2.6,0,4.9-0.1,6.8-0.4c18.9-2.8,96.8-22.2,172.8-44.1C944.9,905,949.3,893.6,951,889.4
		c4.4-11.3,17.4-70.9,25.6-127C988,685.2,987.7,638.6,975.8,623.8z"/>
	<path class="st0" d="M782.7,680c0.4-2.7-1.6-5.3-4.3-5.6c-2.7-0.4-5.3,1.6-5.6,4.3c-0.1,0.5-1.7,13.1-2,26.7
		c-0.6,26.7,4.6,33.2,8.6,35.8c3.2,2.1,8.5,2.9,15,2.9c14,0,33.1-4.1,45.9-8.8c12.1-4.4,18.7-9.3,20.4-14.9
		c4.1-13.5,3.6-53.6,3.5-55.3c0-2.7-2.3-4.9-5-4.9c0,0,0,0-0.1,0c-2.8,0-5,2.3-4.9,5.1c0.2,11.2-0.1,42.3-3.1,52.3
		c-0.3,1-3.4,4.4-14.3,8.4c-21.2,7.8-47.4,9.8-51.9,6.8c-0.2-0.1-4.5-3.2-4-27.1C781.1,692.6,782.7,680.1,782.7,680z"/>
	<path class="st0" d="M360.1,350.1c15.4-13.2,33.8-23.1,51.9-27.9c15.8-4.2,25.3-3,27.9-1.8c0.1,4.9-3.7,25.5-33.1,111.2
		c-0.9,2.6,0.5,5.5,3.1,6.4c2.6,0.9,5.5-0.5,6.4-3.1c38.2-111.4,34.6-116.6,32.2-120c-4.7-6.7-18.5-5.9-26.3-4.8
		c-9.4,1.3-34.2,6.4-60.8,26.4c-25.4,19.1-44.2,45.3-55.8,78c-18.4,51.6-9,101.1,2.2,133.6c12,35.1,28.2,57.7,28.8,58.7
		c1,1.4,2.5,2.1,4.1,2.1c1,0,2-0.3,2.9-0.9c2.2-1.6,2.8-4.7,1.1-7c-0.2-0.2-16.1-22.6-27.6-56.4c-10.5-30.9-19.5-78-2.1-126.7
		C324.7,390.2,339.9,367.4,360.1,350.1z"/>
	<path class="st0" d="M461.5,319.2c1-0.1,97.3-7.9,195.2-13.9c57.5-3.5,104.3-5.7,139-6.6c52.4-1.2,66.3,1,70,2.2
		c-0.1,5.3-4.7,27.9-43.1,122.7c-22.7,56.1-46.3,110.4-46.6,111c-1.1,2.5,0.1,5.5,2.6,6.6c0.6,0.3,1.3,0.4,2,0.4
		c1.9,0,3.8-1.1,4.6-3c0.2-0.6,24.4-56.1,47.4-113.1c47.3-116.9,44-125.3,42.4-129.3c-1.5-3.9-5.8-6.2-23.9-7.3
		c-11.2-0.7-27.2-0.8-47.7-0.4c-34.3,0.6-81.6,2.8-140.6,6.3c-100.4,6.1-201.2,14.3-202.2,14.4c-2.8,0.2-4.8,2.6-4.6,5.4
		C456.3,317.4,458.7,319.4,461.5,319.2z"/>
	<path class="st0" d="M770.3,360.6c24.6-27.2,52.4-40.5,52.7-40.7c2.5-1.2,3.6-4.2,2.4-6.7c-1.2-2.5-4.2-3.6-6.7-2.4
		c-1.2,0.6-29.8,14.2-55.8,43c-1.9,2-1.7,5.2,0.4,7.1c1,0.9,2.2,1.3,3.3,1.3C767.9,362.2,769.3,361.7,770.3,360.6z"/>
	<path class="st0" d="M758.4,555.9c0.9,0,1.8-0.2,2.6-0.7c2.4-1.4,3.1-4.5,1.7-6.9c-0.3-0.4-27.2-45.4-28.6-95.3
		c-0.1-2.8-2.4-4.9-5.1-4.9c-2.8,0.1-4.9,2.4-4.9,5.1c1.5,52.6,28.9,98.3,30.1,100.2C755,555.1,756.7,555.9,758.4,555.9z"/>
	<path class="st0" d="M582.9,608.1c15.9,24.7,22.2,49,22.3,49.3c0.6,2.3,2.6,3.8,4.8,3.8c0.4,0,0.8,0,1.2-0.2
		c2.7-0.7,4.3-3.4,3.6-6.1c-0.3-1-6.7-25.9-23.4-52c-22.4-35-52.7-55-87.6-57.9c-51.5-4.3-85.7,16.1-105.4,34
		c-21.3,19.4-30.3,39.6-30.7,40.5c-1.1,2.5,0,5.5,2.6,6.6c2.5,1.1,5.5,0,6.6-2.6c0.1-0.2,8.5-19.1,28.3-37.1
		c26.5-24.1,59.4-34.7,97.8-31.4C535.1,557.7,562,575.5,582.9,608.1z"/>
	<path class="st0" d="M838.5,506.3c-0.4,0-0.8,0-1.1,0c-4.4,0-10.1,0.3-16.9,0.7c-2.8,0.2-4.9,2.5-4.7,5.3c0.2,2.8,2.5,4.9,5.3,4.7
		c6.6-0.4,12.1-0.6,16.4-0.6c0.4,0,0.7,0,1.1,0c35.2,0,65.8,13.2,90.9,39.2c19.1,19.8,27.7,40.1,27.8,40.3c0.8,1.9,2.7,3.1,4.6,3.1
		c0.6,0,1.3-0.1,1.9-0.4c2.5-1.1,3.8-4,2.7-6.5c-0.4-0.9-9.3-21.9-29.6-43.1C918.2,529.4,886.1,506.3,838.5,506.3z"/>
	<path class="st0" d="M556.3,542.1c0.8,0.4,1.6,0.7,4.2,0.7c6.9,0,26.5-2,91.1-9.1c22-2.4,46.9-5.2,70.7-7.7
		c2.7-0.3,4.7-2.8,4.4-5.5c-0.3-2.7-2.8-4.7-5.5-4.4c-23.8,2.5-48.8,5.3-70.8,7.7c-41.9,4.6-85.1,9.4-90.8,9.1
		c-2.2-0.6-4.6,0.5-5.7,2.6C552.9,537.8,553.8,540.8,556.3,542.1z"/>
	<path class="st0" d="M851.6,417c0.2,2.6,2.4,4.6,5,4.6c0.1,0,0.3,0,0.4,0c50.9-4.4,88.6-8,89-8c2.7-0.3,4.8-2.7,4.5-5.4
		c-0.3-2.7-2.7-4.8-5.4-4.5c-0.4,0-38.1,3.6-88.9,8C853.4,411.9,851.4,414.3,851.6,417z"/>
	<path class="st0" d="M419.1,442.9c-25.6,19.5-44,51.7-53.2,93.2c-6.9,31-6.2,55.9-6.2,57c0.1,2.7,2.3,4.9,5,4.9c0,0,0.1,0,0.1,0
		c2.8-0.1,4.9-2.4,4.9-5.1c0-1-2.1-98,55.5-141.9c55.2-42,91.5-29.7,123.5-18.9c6.7,2.3,13.1,4.4,19.5,6c15,3.7,94.4-0.3,235.8-11.9
		c2.8-0.2,4.8-2.6,4.6-5.4c-0.2-2.8-2.7-4.8-5.4-4.6c-184.1,15.2-224.7,14.2-232.6,12.2c-5.9-1.5-12.1-3.6-18.7-5.8
		C519.2,411.4,478.5,397.7,419.1,442.9z"/>
	<path class="st0" d="M868.2,376.2c0.1,2.8,2.4,4.9,5.1,4.9c7.3-0.2,15.6,0,17.6,0.2c14.6,1.4,25.7,6.6,32.5,10.7
		c0.8,0.5,1.7,0.7,2.6,0.7c1.7,0,3.3-0.9,4.3-2.4c1.4-2.4,0.7-5.4-1.7-6.9c-7.7-4.7-20.3-10.6-36.8-12.1c-2.6-0.2-11.2-0.4-18.8-0.2
		C870.3,371.2,868.1,373.5,868.2,376.2z"/>
	<path class="st0" d="M530.7,397c0.2,2.6,2.4,4.7,5,4.7c0.1,0,0.2,0,0.3,0c1.8-0.1,177.6-12.2,281.2-17.7c2.8-0.1,4.9-2.5,4.7-5.3
		c-0.1-2.8-2.5-4.9-5.3-4.7c-103.7,5.5-279.6,17.6-281.4,17.7C532.6,391.8,530.5,394.2,530.7,397z"/>
	<path class="st0" d="M557.4,450.1c-1.7-2.2-4.8-2.6-7-0.9l-102.6,79.9c-2.2,1.7-2.6,4.8-0.9,7c1,1.3,2.5,1.9,3.9,1.9
		c1.1,0,2.2-0.3,3.1-1.1l102.6-79.9C558.7,455.4,559.1,452.3,557.4,450.1z"/>
	<path class="st0" d="M798.1,561.5l22.3-20c2.1-1.8,2.2-5,0.4-7.1c-1.8-2.1-5-2.2-7.1-0.4l-22.3,20c-2.1,1.8-2.2,5-0.4,7.1
		c1,1.1,2.3,1.7,3.7,1.7C795.9,562.8,797.1,562.4,798.1,561.5z"/>
	<path class="st0" d="M874,493.2l68.5-61.7c2.1-1.8,2.2-5,0.4-7.1c-1.8-2.1-5-2.2-7.1-0.4l-68.5,61.7c-2.1,1.8-2.2,5-0.4,7.1
		c1,1.1,2.3,1.7,3.7,1.7C871.9,494.4,873.1,494,874,493.2z"/>
	<path class="st0" d="M908.7,597.8c2.7,0.5,5.3-1.3,5.8-4s-1.3-5.3-4-5.8c-49.6-9.1-142.1-14.3-169.6-14.2
		c-9.7,0.1-53,5.1-128.8,15.1c-2.7,0.4-4.7,2.9-4.3,5.6c0.3,2.5,2.5,4.3,5,4.3c0.2,0,0.4,0,0.7,0c93.9-12.4,121.2-15,127.5-15.1
		C767.5,583.7,860.5,589,908.7,597.8z"/>
	<path class="st0" d="M552.7,596.9c-76.6,10.3-148.5,20.5-149.2,20.6c-2.7,0.4-4.6,2.9-4.3,5.6c0.4,2.5,2.5,4.3,4.9,4.3
		c0.2,0,0.5,0,0.7,0c0.7-0.1,72.6-10.2,149.1-20.5c2.7-0.4,4.7-2.9,4.3-5.6C557.9,598.5,555.4,596.5,552.7,596.9z"/>
	<path class="st0" d="M427.4,759c-2.8-0.1-5.1,2.1-5.2,4.8c0,0.8-0.6,19,5.2,38.5c8,26.7,24.2,42.8,46.7,46.3
		c2.7,0.4,5.3,0.6,7.8,0.6c9.5,0,17.7-3.1,24.4-9.1c22-19.8,20-65,19.9-66.9c-0.1-2.8-2.5-4.9-5.2-4.7c-2.8,0.1-4.9,2.5-4.7,5.2
		c0,0.4,1.9,42.4-16.6,59c-6.3,5.6-14.1,7.6-23.9,6c-18.7-3-31.7-16.1-38.7-39.1c-5.4-17.9-4.9-35.3-4.9-35.5
		C432.3,761.4,430.2,759.1,427.4,759z"/>
	<path class="st0" d="M882.3,886.4c2.3,0,4.4-1.6,4.9-4c7.2-34.3,22-214.2,22.6-221.8c0.2-2.8-1.8-5.2-4.6-5.4
		c-2.8-0.2-5.2,1.8-5.4,4.6c-0.2,1.9-15.3,186.9-22.4,220.6c-0.6,2.7,1.2,5.4,3.9,5.9C881.7,886.3,882,886.4,882.3,886.4z"/>
	<path class="st0" d="M727.7,930.6c2.7,0,5-2.2,5-4.9l3.8-235.1c0-2.8-2.2-5-4.9-5.1c0,0-0.1,0-0.1,0c-2.7,0-5,2.2-5,4.9l-3.8,235.1
		C722.7,928.3,724.9,930.6,727.7,930.6C727.7,930.6,727.7,930.6,727.7,930.6z"/>
</g>
</svg>
